<svg width="99" height="33" viewBox="0 0 99 33" fill="none" xmlns="http://www.w3.org/2000/svg">
<path fill-rule="evenodd" clip-rule="evenodd" d="M0.74338 1.20897V2.41795H3.48336C6.5054 2.41795 6.84923 2.49575 7.23228 3.26665C7.49835 3.80215 7.49835 4.87401 7.23228 5.40952C6.84923 6.18042 6.5054 6.25822 3.48336 6.25822H0.74338V7.46719V8.67616H4.08506C6.31927 8.67616 7.5414 8.7305 7.7729 8.8403C8.52615 9.19759 8.86534 10.4083 8.46083 11.2957C8.05291 12.1903 7.85872 12.232 4.09832 12.232H0.74338V13.4409V14.6499H4.20327C8.13586 14.6499 8.65311 14.5592 9.61654 13.7009C10.486 12.9263 10.8533 12.0043 10.8533 10.5963C10.8533 9.21266 10.4996 8.30252 9.65289 7.50815L9.09027 6.98019L9.39229 6.29918C9.63663 5.74803 9.6943 5.36059 9.6943 4.26697C9.69443 3.07335 9.64961 2.82075 9.30988 2.10077C9.09847 1.6526 8.69875 1.09078 8.42161 0.852255C7.56887 0.118053 6.90868 0 3.65664 0H0.74338V1.20897ZM16.694 7.3325L13.1796 14.6499H14.5869H15.9942L16.6543 13.1565L17.3144 11.663H20.213H23.1116L23.8972 13.1565L24.6829 14.6499H25.9691H27.2554L23.7554 7.36052C21.8303 3.35142 20.2448 0.0584574 20.2319 0.0430963C20.2191 0.027593 18.627 3.30775 16.694 7.3325ZM29.0314 5.2596C29.0314 10.2697 29.0455 10.5637 29.3274 11.4575C29.7186 12.6978 30.5056 13.6128 31.6553 14.164C32.4533 14.5468 32.6359 14.5771 34.1561 14.5779C36.0399 14.5789 36.8006 14.3616 37.8785 13.5148C38.7485 12.8312 39.3754 11.5515 39.5524 10.0985C39.6239 9.51178 39.6842 6.99953 39.6865 4.51587L39.6907 0H38.5291H37.3675V4.75781C37.3675 10.1419 37.3024 10.7112 36.5926 11.5291C35.9448 12.2753 35.1634 12.5635 33.9773 12.4938C32.7731 12.423 32.0766 11.9825 31.6103 10.9968C31.2903 10.3202 31.2857 10.2491 31.243 5.15592L31.1997 0H30.1155H29.0314V5.2596ZM43.5171 7.30291V14.6499H44.6787H45.8403V9.88514C45.8403 7.26451 45.8914 5.12036 45.9539 5.12036C46.0163 5.12036 47.0769 5.95242 48.3107 6.96938C49.5444 7.98634 50.5848 8.81612 50.6228 8.81342C50.6606 8.81071 51.7371 7.94779 53.0148 6.89584L55.338 4.98325L55.3739 9.81658L55.4099 14.6499H56.5697H57.7295V7.3076C57.7295 1.45375 57.6949 -0.00640045 57.5587 0.10511C52.2898 4.42214 50.7124 5.68929 50.6068 5.68929C50.503 5.68929 44.6661 0.987091 43.7563 0.170536C43.5289 -0.0334246 43.5171 0.318885 43.5171 7.30291ZM86.6686 4.54702L86.6325 9.09404L82.0643 4.682C79.5518 2.25538 77.4456 0.237386 77.3838 0.197703C77.3221 0.15802 77.2715 3.39352 77.2715 7.38768V14.6499H78.3647H79.458V10.0985C79.458 5.92312 79.5125 5.20584 79.794 5.67976C79.8374 5.75286 81.9319 7.80343 84.4485 10.2367L89.024 14.6609V7.3305V0H87.8643H86.7047L86.6686 4.54702ZM63.9125 7.32538C62.0151 11.276 60.4626 14.5403 60.4626 14.5792C60.4626 14.6181 61.0816 14.6499 61.8381 14.6499H63.2135L63.8853 13.1565L64.557 11.663L67.4637 11.6666L70.3703 11.6703L71.1327 13.1245L71.8951 14.5788L73.1484 14.6198C73.8377 14.6422 74.4017 14.6263 74.4017 14.5845C74.4017 14.4404 67.5017 0.142232 67.4322 0.142232C67.3939 0.142232 65.81 3.3746 63.9125 7.32538ZM20.3877 9.21408C19.4844 9.23613 18.7212 9.22902 18.6917 9.1983C18.662 9.16757 18.9886 8.29285 19.4173 7.25455L20.1968 5.36685L21.1135 7.27034L22.0304 9.17398L20.3877 9.21408ZM68.3694 7.2372C68.831 8.16683 69.2087 8.99889 69.2087 9.08622C69.2087 9.26714 65.9307 9.31919 65.9263 9.13842C65.9211 8.92564 67.3384 5.54706 67.4328 5.54706C67.4863 5.54706 67.9077 6.30771 68.3694 7.2372ZM96.6768 22.7571C96.6768 25.2604 96.6399 27.3086 96.5948 27.3086C96.5201 27.3086 93.8133 24.7114 89.0582 20.0774L87.2475 18.3128V25.6553V32.9979H88.4071H89.5668L89.6029 28.4508L89.639 23.9038L94.2072 28.3159C96.7197 30.7425 98.8259 32.7605 98.8877 32.8002C98.9494 32.8398 99 29.5723 99 25.5391V18.2057H97.8384H96.6768V22.7571ZM5.59472 18.442C4.36494 18.7162 2.66205 19.7525 1.83568 20.7296C0.614922 22.173 0.0129467 23.7725 0.0021508 25.6018C-0.00823515 27.3413 -0.0343368 27.3086 1.3649 27.3086H2.54165L2.42823 26.8463C2.19659 25.9013 2.30524 24.5826 2.68555 23.7249C3.45193 21.9963 5.31252 20.7047 7.02811 20.7101C8.07901 20.7136 9.11856 21.047 9.88849 21.6274L10.4439 22.0461L11.3335 21.3799L12.2233 20.7138L11.9154 20.3725C11.3577 19.7541 10.0236 18.9243 9.11979 18.6337C8.28153 18.3643 6.40154 18.2619 5.59472 18.442ZM20.0274 18.5728C17.6561 19.2365 15.6401 21.3384 15.009 23.8051C14.7885 24.6672 14.7678 26.4067 14.9674 27.3086C15.2284 28.4878 15.9289 29.7528 16.8644 30.7341C20.0226 34.0467 25.0834 33.5827 27.587 29.7513C29.8629 26.2681 28.9766 21.7767 25.5565 19.4612C24.0014 18.4083 21.8501 18.0626 20.0274 18.5728ZM36.4109 18.663C35.1739 19.1156 34.4073 19.6157 33.5152 20.5516C32.1934 21.9382 31.4899 23.6922 31.4932 25.5921C31.4962 27.3584 31.4563 27.3086 32.8704 27.3086H34.0809L33.9325 26.9174C33.8508 26.7024 33.7818 26.1073 33.7792 25.5951C33.7674 23.3655 35.5695 21.2017 37.8057 20.7604C39.007 20.5232 40.724 20.9962 41.5626 21.7954L41.8629 22.0815L42.7826 21.3985L43.7024 20.7154L43.029 20.0783C42.6585 19.728 41.8992 19.215 41.3414 18.9385C40.4023 18.4727 40.2152 18.4319 38.8132 18.3866C37.5097 18.3447 37.1757 18.3831 36.4109 18.663ZM46.9336 25.6649V32.9979H48.0951H49.2567V29.9399V26.8819L50.7258 26.8839L52.1949 26.8859L53.7664 29.9387L55.338 32.9916L56.6021 32.9947C57.2972 32.9964 57.8661 32.9755 57.8661 32.9481C57.8661 32.9208 57.1897 31.6105 56.3629 30.0366C55.5361 28.4625 54.8597 27.1217 54.8597 27.0568C54.8597 26.9921 55.0595 26.8637 55.3038 26.7715C55.992 26.5118 56.675 25.8477 57.1133 25.0124C57.4528 24.3654 57.5214 24.0546 57.5685 22.9497C57.6591 20.8309 57.1279 19.6874 55.6599 18.8409L54.928 18.4191L50.9308 18.3755L46.9336 18.3322V25.6649ZM61.1459 25.6729V32.9979H65.8606H70.5753V31.7889V30.5799H67.0222H63.4691V28.6598V26.7396H66.4756H69.482V25.6018V24.4639H66.4756H63.4691V22.5438V20.6237H67.0222H70.5753V19.4858V18.348H65.8606H61.1459V25.6729ZM74.1284 25.6729V32.9979H78.843H83.5577V31.7889V30.5799H80.0046H76.4515V28.6598V26.7396H79.458H82.4645V25.6018V24.4639H79.458H76.4515V22.5438V20.6237H80.0046H83.5577V19.4858V18.348H78.843H74.1284V25.6729ZM23.7321 21.1526C24.6605 21.5796 25.764 22.7254 26.2021 23.7171C26.6578 24.7487 26.6287 26.5323 26.1384 27.6209C25.673 28.6545 24.7217 29.6446 23.7286 30.129C22.6307 30.6647 21.105 30.6631 19.9881 30.1255C18.9218 29.612 18.0453 28.7281 17.5371 27.6536C16.6104 25.6944 17.1941 23.1833 18.9038 21.7739C20.3154 20.6103 22.064 20.3853 23.7321 21.1526ZM54.598 20.9447C54.7922 21.0821 55.0382 21.364 55.1446 21.5712C55.413 22.0941 55.3794 23.3084 55.0834 23.7761C54.6294 24.4935 54.1559 24.6062 51.5934 24.6062H49.2567V22.6037V20.6011L51.7507 20.648C53.8548 20.6875 54.2999 20.7339 54.598 20.9447ZM7.02962 26.0996V27.3086H8.46452H9.89942V29.2072V31.1058L11.061 32.0529L12.2226 33V28.9454V24.8906H9.62611H7.02962V26.0996ZM38.4608 26.0996V27.3086H39.964H41.4673L41.4748 29.2643L41.4823 31.22L42.459 32.0022C42.9962 32.4325 43.4849 32.8059 43.5447 32.8319C43.6047 32.8581 43.6538 31.0819 43.6538 28.8849V24.8906H41.0573H38.4608V26.0996Z" fill="#1A1A19"/>
</svg>
