<svg width="20" height="20" viewBox="0 0 20 20" fill="none" xmlns="http://www.w3.org/2000/svg">
<g clip-path="url(#clip0_303_1531)">
<path d="M3.33337 10C3.33337 10.221 3.42117 10.433 3.57745 10.5893C3.73373 10.7456 3.94569 10.8334 4.16671 10.8334C4.38772 10.8334 4.59968 10.7456 4.75596 10.5893C4.91224 10.433 5.00004 10.221 5.00004 10C5.00004 9.77901 4.91224 9.56705 4.75596 9.41076C4.59968 9.25448 4.38772 9.16669 4.16671 9.16669C3.94569 9.16669 3.73373 9.25448 3.57745 9.41076C3.42117 9.56705 3.33337 9.77901 3.33337 10Z" stroke="#1A1A19" stroke-width="2" stroke-linecap="round" stroke-linejoin="round"/>
<path d="M9.16663 10C9.16663 10.221 9.25442 10.433 9.4107 10.5893C9.56698 10.7456 9.77895 10.8334 9.99996 10.8334C10.221 10.8334 10.4329 10.7456 10.5892 10.5893C10.7455 10.433 10.8333 10.221 10.8333 10C10.8333 9.77901 10.7455 9.56705 10.5892 9.41076C10.4329 9.25448 10.221 9.16669 9.99996 9.16669C9.77895 9.16669 9.56698 9.25448 9.4107 9.41076C9.25442 9.56705 9.16663 9.77901 9.16663 10Z" stroke="#1A1A19" stroke-width="2" stroke-linecap="round" stroke-linejoin="round"/>
<path d="M15 10C15 10.221 15.0878 10.433 15.2441 10.5893C15.4004 10.7456 15.6123 10.8334 15.8333 10.8334C16.0543 10.8334 16.2663 10.7456 16.4226 10.5893C16.5789 10.433 16.6667 10.221 16.6667 10C16.6667 9.77901 16.5789 9.56705 16.4226 9.41076C16.2663 9.25448 16.0543 9.16669 15.8333 9.16669C15.6123 9.16669 15.4004 9.25448 15.2441 9.41076C15.0878 9.56705 15 9.77901 15 10Z" stroke="#1A1A19" stroke-width="2" stroke-linecap="round" stroke-linejoin="round"/>
</g>
<defs>
<clipPath id="clip0_303_1531">
<rect width="20" height="20" fill="white"/>
</clipPath>
</defs>
</svg>
